<?xml version="1.0" encoding="utf-8"?>
<!-- Generator: Adobe Illustrator 16.0.0, SVG Export Plug-In . SVG Version: 6.00 Build 0)  -->
<!DOCTYPE svg PUBLIC "-//W3C//DTD SVG 1.1//EN" "http://www.w3.org/Graphics/SVG/1.1/DTD/svg11.dtd">
<svg version="1.1" id="Layer_1" xmlns="http://www.w3.org/2000/svg" xmlns:xlink="http://www.w3.org/1999/xlink" x="0px" y="0px"
	 width="333.945px" height="27.536px" viewBox="39.123 25.154 333.945 27.536"
	 enable-background="new 39.123 25.154 333.945 27.536" xml:space="preserve">
<path fill="#FFFFFF" d="M230.398,39.885c0-2.126-1.045-3.172-3.172-3.172h-19.943v-7.139h23.115v-4.419h-23.684
	c-2.131,0-3.854,1.725-3.854,3.853v8.952c0,2.126,1.045,3.171,3.172,3.171h19.943v7.141h-23.117v4.42h24.365
	c2.127,0,3.172-1.045,3.172-3.176v-9.631H230.398z"/>
<path fill="#0269FC" d="M39.123,49.516V29.007c0-2.128,1.725-3.853,3.853-3.853h23.683v4.42H43.543V48.27h18.696v-7.139H50.681
	v-4.418h15.978v15.977H42.296C40.168,52.689,39.123,51.645,39.123,49.516"/>
<path fill="#FFFFFF" d="M141.786,41.131v7.141h23.116v4.42h-24.363c-2.128,0-3.173-1.045-3.173-3.174V29.007
	c0-2.127,1.725-3.853,3.853-3.853h23.683v4.42h-23.116v7.139h23.116v4.418H141.786z"/>
<path fill="#FFFFFF" d="M76.292,29.573h18.696v7.138H76.292V29.573z M94.987,41.131v11.561h4.42V29.006
	c0-2.127-1.046-3.853-3.174-3.853h-20.51c-2.127,0-3.852,1.726-3.852,3.853v23.684h4.42V41.13L94.987,41.131L94.987,41.131z"/>
<path fill="#0269FC" d="M235.611,49.516V29.007c0-2.128,1.725-3.853,3.854-3.853h23.682v4.42h-23.114V48.27h18.694v-7.139H247.17
	v-4.418h15.977v15.977h-24.362C236.656,52.689,235.611,51.645,235.611,49.516"/>
<path fill="#FFFFFF" d="M272.777,29.573h18.697v7.138h-18.697V29.573z M291.475,41.131v11.561h4.42V28.328
	c0-2.128-1.045-3.174-3.174-3.174h-20.51c-2.127,0-3.854,1.726-3.854,3.853v23.683h4.42V41.13L291.475,41.131L291.475,41.131z"/>
<polygon fill="#FFFFFF" points="301.105,25.154 301.105,29.574 312.664,29.574 312.664,52.689 317.084,52.689 317.084,29.574 
	328.643,29.574 328.643,25.154 "/>
<path fill="#FFFFFF" d="M338.273,41.131v7.141h23.117v4.42h-24.363c-2.129,0-3.174-1.045-3.174-3.174V29.007
	c0-2.127,1.725-3.853,3.854-3.853h23.684v4.42h-23.117v7.139h23.117v4.418H338.273z"/>
<path fill="#FFFFFF" d="M365.238,28.956c0,2.325,1.844,3.823,3.914,3.823s3.916-1.498,3.916-3.823c0-2.314-1.846-3.803-3.916-3.803
	S365.238,26.642,365.238,28.956 M366.277,28.956c0-1.733,1.274-2.988,2.875-2.988c1.58,0,2.877,1.255,2.877,2.988
	c0,1.744-1.297,3.009-2.877,3.009C367.553,31.965,366.277,30.7,366.277,28.956 M367.635,31.087h0.844v-1.826h0.531l1.041,1.826
	h0.887l-1.141-1.866c0.631-0.051,1.119-0.357,1.119-1.142c0-0.928-0.6-1.264-1.672-1.264h-1.609V31.087L367.635,31.087z
	 M368.479,27.477h0.715c0.39,0,0.877,0.071,0.877,0.531c0,0.52-0.354,0.592-0.836,0.592h-0.756V27.477z"/>
<path fill="#FFFFFF" d="M132.154,52.689h-0.584h-2.714h-1.122l-0.004-20.181c0-0.339,0.548-0.509,0.548-0.509c-0.158,0,0,0,0,0
	l-8.457,14.751c-0.155,0.26-0.364,0.458-0.623,0.589c-0.258,0.133-0.529,0.195-0.814,0.195c-0.644,0-1.123-0.264-1.433-0.784
	l-8.454-14.75c0,0,0.464-0.001,0.309-0.001h0.239l-0.007,20.688h-1.122h-2.718h-0.58V25.154h0.58h3.804h0.482l8.9,15.932
	c0.051,0.105-0.038-0.051,0,0c0.038,0.055-0.075,0,0,0c0.079,0-0.129,0.208,0,0l8.895-15.932h0.491h3.8h0.584"/>
<path fill="#FFFFFF" d="M187.439,41.133l9.08,11.557h-5.62l-9.079-11.557h-7.287v11.559h-4.419c0,0-0.001-21.793-0.001-23.684
	c0-1.974,1.497-3.851,3.853-3.851c2.357,0,20.51-0.002,20.51-0.002c2.128,0,3.173,1.046,3.173,3.173v8.952
	c0,2.128-1.045,3.852-3.173,3.852l-7.025,0.002L187.439,41.133L187.439,41.133z M174.533,36.714h18.696v-7.138h-18.696V36.714z"/>
</svg>
